<?xml version="1.0" encoding="UTF-8" standalone="no"?>
<!DOCTYPE svg PUBLIC "-//W3C//DTD SVG 1.1//EN" "http://www.w3.org/Graphics/SVG/1.1/DTD/svg11.dtd">
<svg width="100%" height="100%" viewBox="0 0 64 64" version="1.1" xmlns="http://www.w3.org/2000/svg"
     xml:space="preserve"
     style="fill-rule:evenodd;clip-rule:evenodd;stroke-linejoin:round;stroke-miterlimit:2;">
    <g>
        <g transform="matrix(1.27748,0.180839,-0.180839,1.27748,-2.5621,-17.5833)">
            <path d="M23.6,38.65C22.6,38.65 21.7,38.967 20.9,39.6C20.4,39.967 19.933,40.467 19.5,41.1L17.45,43.75C15.583,46.083 14,47.5 12.7,48C10.6,47.7 9.117,46.35 8.25,43.95C8.05,42.983 7.967,41.917 8,40.75C8.067,38.917 9.998,21.426 16.345,17.201C19.572,15.053 25.458,14.627 31.372,14.244C37.087,13.873 42.832,13.473 46.08,15.402C52.689,19.327 55.933,38.917 56,40.75C56.033,41.917 55.95,42.983 55.75,43.95C54.883,46.35 53.383,47.7 51.25,48C49.983,47.5 48.4,46.083 46.5,43.75L44.5,41.1L43.1,39.6C42.3,38.967 41.4,38.65 40.4,38.65L23.6,38.65ZM18.733,27.53C17.485,29.675 20.05,33.723 22.301,33.771C24.633,33.822 28.231,33.284 28.84,30.863C29.444,28.46 26.934,29.002 24.772,27.764C22.61,26.526 19.981,25.385 18.733,27.53ZM39.124,25.434C40.375,23.285 37.801,19.228 35.544,19.178C33.206,19.127 32.526,20.575 31.916,23.002C31.311,25.41 29.492,28.254 31.661,29.496C33.829,30.738 37.873,27.583 39.124,25.434ZM29.499,33.991C29.499,33.991 36.937,36.626 40.168,32.378C42.993,28.664 43.33,23.863 43.33,23.863C40.765,30.423 36.354,34.111 29.499,33.991Z"
                  style="fill:rgb(245,245,245);"/>
        </g>
        <g transform="matrix(1.88888,1.52901,-1.52901,1.88888,21.8144,-31.1836)">
            <path d="M6.352,12.141C6.487,12.141 3.918,14.056 3.918,15.95C3.918,17.845 6.487,19.76 6.352,19.76C6.217,19.76 3.107,18.053 3.107,15.95C3.107,13.848 6.217,12.141 6.352,12.141Z"
                  style="fill:rgb(245,245,245);"/>
        </g>
        <g transform="matrix(0.814147,0.774868,-1.16249,1.22142,22.5236,-15.6567)">
            <path d="M6.352,12.141C6.487,12.141 3.918,14.056 3.918,15.95C3.918,17.845 6.487,19.76 6.352,19.76C6.217,19.76 3.107,18.053 3.107,15.95C3.107,13.848 6.217,12.141 6.352,12.141Z"
                  style="fill:rgb(245,245,245);"/>
        </g>
        <g transform="matrix(0.354595,0.402326,-0.603587,0.531979,16.4527,-1.67666)">
            <path d="M6.352,12.141C6.487,12.141 3.918,14.056 3.918,15.95C3.918,17.845 6.487,19.76 6.352,19.76C6.217,19.76 3.107,18.053 3.107,15.95C3.107,13.848 6.217,12.141 6.352,12.141Z"
                  style="fill:rgb(245,245,245);"/>
        </g>
        <g transform="matrix(-1.69635,-1.74015,1.74015,-1.69635,39.4685,92.0692)">
            <path d="M6.352,12.141C6.487,12.141 3.918,14.056 3.918,15.95C3.918,17.845 6.487,19.76 6.352,19.76C6.217,19.76 3.107,18.053 3.107,15.95C3.107,13.848 6.217,12.141 6.352,12.141Z"
                  style="fill:rgb(245,245,245);"/>
        </g>
        <g transform="matrix(-0.717567,-0.865074,1.29782,-1.07653,40.5867,76.5664)">
            <path d="M6.352,12.141C6.487,12.141 3.918,14.056 3.918,15.95C3.918,17.845 6.487,19.76 6.352,19.76C6.217,19.76 3.107,18.053 3.107,15.95C3.107,13.848 6.217,12.141 6.352,12.141Z"
                  style="fill:rgb(245,245,245);"/>
        </g>
        <g transform="matrix(-0.23649,-0.481328,0.722109,-0.354793,46.9717,61.9481)">
            <path d="M6.352,12.141C6.487,12.141 3.918,14.056 3.918,15.95C3.918,17.845 6.487,19.76 6.352,19.76C6.217,19.76 3.107,18.053 3.107,15.95C3.107,13.848 6.217,12.141 6.352,12.141Z"
                  style="fill:rgb(245,245,245);"/>
        </g>
    </g>
</svg>
